<svg width="134" height="24" fill="none" xmlns="http://www.w3.org/2000/svg"><g clip-path="url(#a)"><path d="M18.631 16.67 11.296 24 1.52 14.23a5.18 5.18 0 0 1 0-7.329 5.19 5.19 0 0 1 7.335 0l9.777 9.77Z" fill="url(#b)"/><path d="M3.99 16.67 11.325 24l9.645-9.638a5.18 5.18 0 0 0 0-7.33 5.19 5.19 0 0 0-7.335 0L3.99 16.672Z" fill="url(#c)"/><path d="m3.99 16.671 7.335 7.33 3.644-3.642a5.18 5.18 0 0 0 0-7.33 5.19 5.19 0 0 0-7.335 0L3.99 16.672Z" fill="url(#d)"/><path d="M6.978 2.127A2.127 2.127 0 0 1 4.85 4.254 2.127 2.127 0 1 1 4.85 0c1.174 0 2.13.951 2.13 2.127Z" fill="url(#e)"/><path d="M13.361 4.518a2.127 2.127 0 0 1-2.129 2.127 2.127 2.127 0 1 1 0-4.254c1.177 0 2.129.95 2.129 2.127Z" fill="url(#f)"/><path d="M13.361 4.518a2.127 2.127 0 0 1-2.129 2.127 2.127 2.127 0 1 1 0-4.254c1.177 0 2.129.95 2.129 2.127Z" fill="url(#g)"/><path d="M17.615 4.254a2.128 2.128 0 1 0 .001-4.256 2.128 2.128 0 0 0-.001 4.256Z" fill="url(#h)"/><path d="M17.615 4.254a2.128 2.128 0 1 0 .001-4.256 2.128 2.128 0 0 0-.001 4.256Z" fill="url(#i)"/><path d="M38.885 4.966h2.807v3.775h1.365v2.485h-1.365v4.396h-2.807V4.966Zm-10.467 9.216v-2.107h3.277v-.879c-.9-.01-1.593-.258-2.079-.743-.485-.495-.728-1.116-.728-1.864 0-.293.06-.566.182-.819h-.652V5.815h3.277v-.97h2.882v.97h3.261V7.77h-.652c.121.253.182.526.182.819 0 .758-.248 1.384-.743 1.88-.486.485-1.188.727-2.109.727h-.106v.88h.592c1.294 0 2.34-.061 3.14-.183V14c-.8.122-1.846.182-3.14.182h-6.584Zm1.062.773h2.928v2.031h9.648v2.122H29.48v-4.153Zm2.928-7.306c-.284 0-.511.081-.683.243-.172.151-.258.358-.258.621 0 .273.086.49.258.652.172.152.4.227.683.227h1.44c.284 0 .511-.075.683-.227.172-.162.258-.379.258-.652 0-.263-.086-.47-.258-.621-.172-.162-.4-.243-.682-.243h-1.441Zm21.95 4.002h-3.246v-1.425c-.637.829-1.568 1.455-2.791 1.88-1.214.424-2.665.651-4.354.682v-2.259c1.092-.03 2.033-.167 2.822-.41.799-.252 1.405-.58 1.82-.984.415-.405.622-.87.622-1.395v-.227H44.21V5.285h7.827v1.121h2.321v-1.44h2.883v7.928h-2.883V11.65Zm-9.966 4.608c0-.87.273-1.566.819-2.092.556-.535 1.355-.803 2.397-.803h6.584c1.031 0 1.825.262 2.381.788.556.525.834 1.228.834 2.107 0 .879-.278 1.581-.834 2.107-.556.525-1.35.788-2.382.788h-6.583c-1.042 0-1.84-.268-2.397-.803-.546-.526-.82-1.223-.82-2.092Zm2.928 0c0 .293.09.525.273.697.182.172.44.258.773.258h5.067c.344 0 .602-.086.774-.258.182-.172.273-.404.273-.697 0-.293-.091-.526-.273-.697-.172-.182-.43-.273-.774-.273h-5.067c-.334 0-.591.09-.773.273-.182.171-.273.404-.273.697Zm7.038-6.594V8.392h-2.427c-.09.465-.242.89-.455 1.273h2.882Zm18.356 9.065H58.758v-2.335h5.506v-2.273h2.943v2.273h5.507v2.335Zm-3.595-7.443v-1.94h-6.781v1.94h6.78Zm-9.74-6.018h2.959v1.895h6.78V5.27h2.944v8.292H59.38V5.269Zm25.319 5.579h-3.444c-.677.788-1.613 1.394-2.806 1.818-1.183.425-2.564.667-4.141.728V11.09c1.031-.07 1.946-.242 2.745-.515.8-.273 1.421-.637 1.866-1.092.455-.465.683-.99.683-1.576v-.288h-5.037V5.36h7.889v2.031c0 .405-.04.819-.121 1.243h2.366V4.966h2.882v10.656h-2.882v-4.774Zm-9.709 3.198h2.928v2.834h9.951v2.229H74.99v-5.063Zm24.879-9.08h2.882v14.142h-2.882V4.966ZM89.37 9.165c0-.849.182-1.576.546-2.183a3.583 3.583 0 0 1 1.532-1.394c.648-.314 1.391-.47 2.23-.47.84 0 1.583.156 2.23.47a3.473 3.473 0 0 1 1.533 1.394c.374.607.56 1.334.56 2.183v5.608c0 .85-.186 1.582-.56 2.198a3.517 3.517 0 0 1-1.517 1.38c-.648.313-1.39.47-2.23.47-.84 0-1.588-.157-2.246-.47a3.613 3.613 0 0 1-1.532-1.38c-.364-.616-.546-1.349-.546-2.198V9.165Zm2.807 5.85c0 .476.141.84.424 1.092.284.253.643.38 1.078.38.445 0 .809-.127 1.092-.38.283-.252.424-.616.424-1.091V8.922c0-.464-.141-.823-.424-1.076-.283-.263-.637-.394-1.062-.394-.445 0-.814.131-1.108.394-.283.253-.424.612-.424 1.076v6.094Zm26.046-1.818h-13.956V11.09h2.746v-.955c-.759-.101-1.345-.364-1.76-.788-.404-.435-.607-1-.607-1.698v-.09c0-.81.263-1.43.789-1.865.536-.445 1.29-.667 2.26-.667h7.085c.971 0 1.724.222 2.26.667.536.444.804 1.066.804 1.864v.091c0 .687-.207 1.248-.622 1.683-.404.424-.981.692-1.729.803v.955h2.73v2.107Zm-3.125.803c.931 0 1.634.233 2.109.698.475.464.713 1.091.713 1.88 0 .787-.238 1.414-.713 1.879-.475.465-1.178.697-2.109.697h-7.706c-.93 0-1.633-.232-2.109-.697-.475-.465-.713-1.092-.713-1.88 0-.788.238-1.415.713-1.88.476-.464 1.179-.697 2.109-.697h7.706Zm-1.046 3.274c.313 0 .546-.05.697-.151.162-.111.243-.293.243-.546 0-.253-.081-.43-.243-.53-.151-.112-.384-.167-.697-.167h-5.613c-.314 0-.551.055-.713.167-.152.1-.228.277-.228.53s.076.435.228.546c.162.1.399.151.713.151h5.613Zm.849-9.67a.587.587 0 0 0-.182-.455c-.121-.111-.298-.167-.531-.167h-5.901c-.233 0-.41.056-.531.167a.615.615 0 0 0-.167.455v.015c0 .192.056.343.167.455.121.1.298.151.531.151h5.901c.233 0 .41-.05.531-.151a.587.587 0 0 0 .182-.455v-.015Zm-2.124 3.486v-.91h-3.049v.91h3.049Zm7.145-5.82h8.784V7.86c0 .87-.122 1.622-.364 2.259.495-.04.869-.08 1.122-.121v2.107c-.799.12-1.861.181-3.186.181h-.667v2.805h-2.184v1.819h9.951v2.197h-12.879v-4.835h2.321v-1.986h-3.383V10.18h6.295c.253-.555.38-1.227.38-2.015v-.88h-6.19V5.27Zm10.285 9.943h-3.473v-1.986h3.473v-8.26h2.883v11.262h-2.883v-1.016Z" fill="#fff" style="fill:#fff;fill-opacity:1"/></g><defs><linearGradient id="b" x1=".059" y1="8.252" x2="10.474" y2="18.675" gradientUnits="userSpaceOnUse"><stop stop-color="#3486E7" style="stop-color:color(display-p3 .2039 .5255 .9059);stop-opacity:1"/><stop offset="1" stop-color="#6851C1" style="stop-color:color(display-p3 .4078 .3176 .7569);stop-opacity:1"/></linearGradient><linearGradient id="c" x1="21.683" y1="7.333" x2="11.242" y2="23.518" gradientUnits="userSpaceOnUse"><stop stop-color="#24BAA7" style="stop-color:color(display-p3 .1412 .7294 .6549);stop-opacity:1"/><stop offset="1" stop-color="#3586E7" style="stop-color:color(display-p3 .2078 .5255 .9059);stop-opacity:1"/></linearGradient><linearGradient id="d" x1="3.99" y1="17.756" x2="16.488" y2="17.756" gradientUnits="userSpaceOnUse"><stop stop-color="#FFBC4A" style="stop-color:color(display-p3 1 .7365 .2917);stop-opacity:1"/><stop offset="1" stop-color="#FF633D" style="stop-color:color(display-p3 1 .39 .2375);stop-opacity:1"/></linearGradient><linearGradient id="e" x1="2.669" y1="-.667" x2="7.001" y2="4.337" gradientUnits="userSpaceOnUse"><stop stop-color="#6851C1" style="stop-color:color(display-p3 .4078 .3176 .7569);stop-opacity:1"/><stop offset="1" stop-color="#3486E7" style="stop-color:color(display-p3 .2039 .5255 .9059);stop-opacity:1"/></linearGradient><linearGradient id="f" x1="9.104" y1="4.518" x2="13.361" y2="4.518" gradientUnits="userSpaceOnUse"><stop stop-color="#F0A321" style="stop-color:color(display-p3 .9412 .6392 .1294);stop-opacity:1"/><stop offset="1" stop-color="#F1592D" style="stop-color:color(display-p3 .9451 .349 .1765);stop-opacity:1"/></linearGradient><linearGradient id="g" x1="10.008" y1="8.333" x2="12.34" y2="2.999" gradientUnits="userSpaceOnUse"><stop stop-color="#FFBC4A" style="stop-color:color(display-p3 1 .7365 .2917);stop-opacity:1"/><stop offset="1" stop-color="#FF633D" style="stop-color:color(display-p3 1 .39 .2375);stop-opacity:1"/></linearGradient><linearGradient id="i" x1="21.35" y1="-.667" x2="16.576" y2="5.818" gradientUnits="userSpaceOnUse"><stop stop-color="#3586E7" style="stop-color:color(display-p3 .2078 .5255 .9059);stop-opacity:1"/><stop offset="1" stop-color="#24BAA7" style="stop-color:color(display-p3 .1412 .7294 .6549);stop-opacity:1"/></linearGradient><radialGradient id="h" cx="0" cy="0" r="1" gradientUnits="userSpaceOnUse" gradientTransform="rotate(114.396 9.322 6.182) scale(5.55998 7.70909)"><stop stop-color="#24BAA7" style="stop-color:color(display-p3 .1412 .7294 .6549);stop-opacity:1"/><stop offset="1" stop-color="#3586E7" style="stop-color:color(display-p3 .2078 .5255 .9059);stop-opacity:1"/></radialGradient><clipPath id="a"><path fill="#fff" style="fill:#fff;fill-opacity:1" d="M0 0h134v24H0z"/></clipPath></defs></svg>