<svg width="20" height="20" viewBox="0 0 20 20" fill="none" xmlns="http://www.w3.org/2000/svg">
<path d="M8.78172 5.74756H11.0945M6.46899 8.74554H11.0945M6.46899 11.7435H11.0945" stroke="#8C9ABC" stroke-width="1.2" stroke-linecap="round" stroke-linejoin="round"/>
<path d="M14.5637 3.8C14.5637 3.05005 14.5637 2.67508 14.3727 2.41221C14.311 2.32732 14.2363 2.25266 14.1514 2.19098C13.8886 2 13.5136 2 12.7637 2H4.8C4.05005 2 3.67508 2 3.41221 2.19098C3.32732 2.25266 3.25266 2.32732 3.19098 2.41221C3 2.67508 3 3.05005 3 3.8V13.6909C3 14.4409 3 14.8158 3.19098 15.0787C3.25266 15.1636 3.32732 15.2383 3.41221 15.2999C3.67508 15.4909 4.05005 15.4909 4.8 15.4909H12.7637C13.5136 15.4909 13.8886 15.4909 14.1514 15.2999C14.2363 15.2383 14.311 15.1636 14.3727 15.0787C14.5637 14.8158 14.5637 14.4409 14.5637 13.6909V3.8Z" stroke="#8C9ABC" stroke-width="1.5" stroke-linecap="round" stroke-linejoin="round"/>
<path d="M5.40918 15.9727V16.9C5.40918 17.4523 5.85689 17.9 6.40918 17.9H16.4547C17.0069 17.9 17.4547 17.4523 17.4547 16.9V4.92725C17.4547 4.37496 17.0069 3.92725 16.4547 3.92725H14.5637" stroke="#8C9ABC" stroke-width="1.5"/>
</svg>
