<svg width="20" height="20" viewBox="0 0 20 20" fill="none" xmlns="http://www.w3.org/2000/svg">
<path d="M16.2809 9.57024C16.2809 9.03951 16.2111 8.52782 16.0925 8.03516L18 6.61195L16.5019 3.95591L14.3455 4.93646C13.622 4.22723 12.7357 3.69174 11.747 3.399L11.4981 1H8.50189L8.25298 3.399C7.26432 3.69174 6.37802 4.22485 5.65455 4.93646L3.49811 3.95591L2 6.61195L3.90753 8.03516C3.78889 8.52782 3.7191 9.03951 3.7191 9.57024C3.7191 10.101 3.78889 10.6127 3.90753 11.1053L2 12.5285L3.49811 15.1846L5.65455 14.2064C6.37802 14.9156 7.26432 15.4511 8.25298 15.7439L8.50189 18.1429H11.4981L11.747 15.7439C12.7357 15.4511 13.622 14.918 14.3455 14.2064L16.5019 15.1846L18 12.5285L16.0925 11.1053C16.2111 10.6127 16.2809 10.101 16.2809 9.57024ZM10 12.5952C8.36697 12.5952 7.04333 11.241 7.04333 9.57024C7.04333 7.89951 8.36697 6.54531 10 6.54531C11.633 6.54531 12.9567 7.89951 12.9567 9.57024C12.9567 11.241 11.633 12.5952 10 12.5952Z" stroke="#8C9ABC" stroke-width="1.5" stroke-linecap="round" stroke-linejoin="round"/>
</svg>
