<svg width="20" height="20" viewBox="0 0 20 20" fill="none" xmlns="http://www.w3.org/2000/svg">
<path d="M10 12.7684C12.0539 12.7684 13.7188 11.1034 13.7188 9.0496C13.7188 6.99577 12.0539 5.33081 10 5.33081C7.94621 5.33081 6.28125 6.99577 6.28125 9.0496C6.28125 11.1034 7.94621 12.7684 10 12.7684Z" stroke="#8C9ABC" stroke-width="1.5" stroke-linecap="round" stroke-linejoin="round"/>
<path d="M4.8606 15.8401C5.84726 14.0122 7.78181 12.7686 10.0048 12.7686C12.2279 12.7686 14.1091 13.9783 15.1079 15.7673" stroke="#8C9ABC" stroke-width="1.5" stroke-linecap="round" stroke-linejoin="round"/>
<path d="M10 18C14.4183 18 18 14.4183 18 10C18 5.58172 14.4183 2 10 2C5.58172 2 2 5.58172 2 10C2 14.4183 5.58172 18 10 18Z" stroke="#8C9ABC" stroke-width="1.5" stroke-linecap="round" stroke-linejoin="round"/>
</svg>
